<svg xmlns="http://www.w3.org/2000/svg" viewBox="0 0 200 200">
  <defs><clipPath id="d8"><rect x="10" y="10" width="180" height="180" transform="rotate(45 100 100)"/></clipPath></defs>
  <rect x="10" y="10" width="180" height="180" transform="rotate(45 100 100)" fill="#FFF" stroke="#000" stroke-width="4"/>
  <rect x="0" y="100" width="200" height="100" fill="#000" clip-path="url(#d8)"/>
  <g transform="translate(80,70)">
    <path d="M5,0 L15,0 L15,20 C15,25 10,28 10,28 C10,28 5,25 5,20Z" fill="none" stroke="#000" stroke-width="2.5"/>
    <line x1="10" y1="28" x2="10" y2="35" stroke="#000" stroke-width="2"/>
    <ellipse cx="10" cy="38" rx="8" ry="3" fill="none" stroke="#000" stroke-width="2"/>
  </g>
  <g transform="translate(100,70)">
    <rect x="5" y="0" width="16" height="12" rx="2" fill="none" stroke="#000" stroke-width="2.5"/>
    <path d="M8,12 L8,25 C8,30 18,30 18,25 L18,12" fill="none" stroke="#000" stroke-width="2"/>
    <ellipse cx="13" cy="30" rx="8" ry="4" fill="none" stroke="#000" stroke-width="2"/>
  </g>
  <text x="100" y="158" text-anchor="middle" font-family="Arial,sans-serif" font-size="28" font-weight="bold" fill="#FFF">8</text>
</svg>